<svg xmlns="http://www.w3.org/2000/svg" xmlns:xlink="http://www.w3.org/1999/xlink" width="200" height="50" viewBox="0 0 200 50">
  <defs>
    <clipPath id="clip-path">
      <rect id="Ret칙ngulo_11710" data-name="Ret칙ngulo 11710" width="200" height="50" transform="translate(1914 18224)" fill="white" stroke="#707070" stroke-width="1"/>
    </clipPath>
  </defs>
  <g id="Grupo_de_m치scara_91" data-name="Grupo de m치scara 91" transform="translate(-1914 -18224)" clip-path="url(#clip-path)">
    <g id="Grupo_14414" data-name="Grupo 14414" transform="translate(1942 18229)">
      <path id="Caminho_3266" data-name="Caminho 3266" d="M226.3,412.648h-1.992a.449.449,0,0,1-.4-.651l4.981-9.771-4.972-9.562a.448.448,0,0,1,.4-.656H226.3a4.1,4.1,0,0,1,3.884,2.181l4.7,8.037-4.633,8.04a4.26,4.26,0,0,1-3.951,2.383" transform="translate(-75.276 -392.008)" fill="white"/>
      <path id="Caminho_3267" data-name="Caminho 3267" d="M206.479,398.495a21.454,21.454,0,0,0-2.759.142c-1.583.216-2.837,3.166-2.116,3.7.2.151.55.123,1.042.022a20.769,20.769,0,0,1,4.065-.358c2.748,0,4.568.558,4.568,3.029v1.954h-4.257c-4.839,0-7.9,1.555-7.9,6.02,0,4.226,2.827,6.14,7.859,6.14,5.729,0,8.245-1.993,8.245-6.38v-7.734c0-4.983-3.523-6.537-8.748-6.537m4.8,14.073c0,2.711-1.857,3.109-4.374,3.109-1.974,0-3.794-.4-3.794-2.75,0-2.034,1.277-2.83,3.91-2.83h4.257Z" transform="translate(-89.545 -388.266)" fill="white"/>
      <path id="Caminho_3268" data-name="Caminho 3268" d="M148.31,398.459a21.746,21.746,0,0,0-2.759.142v0c-1.582.216-2.837,3.174-2.116,3.712.2.15.55.123,1.042.022a20.732,20.732,0,0,1,4.065-.359c2.748,0,4.568.56,4.568,3.038v1.958h-4.257c-4.839,0-7.9,1.558-7.9,6.036,0,4.237,2.827,6.156,7.859,6.156,5.729,0,8.245-2,8.245-6.4v-7.755c0-5-3.523-6.556-8.748-6.556m4.8,14.111c0,2.718-1.857,3.119-4.374,3.119-1.974,0-3.794-.4-3.794-2.759,0-2.039,1.277-2.838,3.91-2.838h4.257Z" transform="translate(-123.097 -388.287)" fill="white"/>
      <path id="Caminho_3269" data-name="Caminho 3269" d="M145.618,394.837a2.38,2.38,0,0,0-2.282,1.731,6.916,6.916,0,0,0-.1,1.213.52.52,0,0,0,.516.519h7.9a2.434,2.434,0,0,0,2.282-1.731,3.989,3.989,0,0,0,.1-1.213.52.52,0,0,0-.516-.519Z" transform="translate(-121.779 -390.376)" fill="white"/>
      <path id="Caminho_3270" data-name="Caminho 3270" d="M172.667,411.252c0,4.9,2.644,7.739,8.475,7.752h.039c5.831-.013,8.475-2.848,8.475-7.752V401.54a2.8,2.8,0,0,0-2.789-2.8h-.635a.606.606,0,0,0-.6.6l0,11.9c0,2.513-.817,3.91-4.47,3.915s-4.473-1.4-4.473-3.915l0-9.727a2.814,2.814,0,0,0-2.014-2.666,5.552,5.552,0,0,0-1.411-.113.606.606,0,0,0-.6.6Z" transform="translate(-104.805 -388.125)" fill="white"/>
      <path id="Caminho_3271" data-name="Caminho 3271" d="M172.54,398.751a4.523,4.523,0,0,0-1.492.112,2.8,2.8,0,0,0-2.127,2.652l0,10.718c0,5.284-1.812,7.16-3.113,8.289-.35.306-.916.822-.916.822-.183.236-.073.516.2.729l.514.408a3.01,3.01,0,0,0,.7.413,3.068,3.068,0,0,0,3.433-.738,10.435,10.435,0,0,0,1.086-1.285c1.361-1.932,2.354-4.518,2.354-8.887V399.35a.621.621,0,0,0-.637-.6" transform="translate(-109.343 -388.13)" fill="white"/>
      <path id="Caminho_3272" data-name="Caminho 3272" d="M153.316,410.534V407.1c0-5.587,2.993-8.62,9.179-8.62,6.345,0,9.1,2.874,9.1,8.62v3.433c0,5.546-2.993,8.62-9.1,8.62-6.384,0-9.179-2.875-9.179-8.62m14.168-3.433c0-3.352-1.118-4.789-4.989-4.789s-5.068,1.436-5.068,4.789v3.433c0,3.311,1.118,4.749,5.068,4.749,3.871,0,4.989-1.4,4.989-4.749Z" transform="translate(-115.967 -388.274)" fill="white"/>
      <path id="Caminho_3273" data-name="Caminho 3273" d="M203.829,394.224a.61.61,0,0,0-.609-.607,4.086,4.086,0,0,0-1.427.114,2.847,2.847,0,0,0-2.036,2.684v7.5c-1.077-1.716-3.034-2.592-5.826-2.592-5.547,0-8.341,2.912-8.341,8.7v3.431c0,5.708,3.013,8.521,9.119,8.521,5.747,0,9.12-2.813,9.12-8.521V394.224Zm-9.139,23.9c-3.951,0-4.989-1.4-4.989-4.749v-3.433c0-3.352,1.118-4.789,4.989-4.789,3.852,0,5.055,1.424,5.068,4.738v3.483c0,3.313-1.116,4.749-5.068,4.749" transform="translate(-97.351 -391.091)" fill="white"/>
      <path id="Caminho_3274" data-name="Caminho 3274" d="M129.873,403.912c0,3.113,1.517,4.349,3.95,5.424l4.311,1.916c1.954.878,2.554,1.358,2.554,2.394,0,1.317-1.079,1.716-3.712,1.716-.155,0-1.172-.027-1.172-.027a18.578,18.578,0,0,1-5.429-1.075.6.6,0,0,0-.525.058c-.687.673.3,4.037,1.868,4.387,0,0,1.008.186,1.742.257.019,0,2.849.189,3.155.189,5.667,0,8.061-1.755,8.061-5.583,0-3.191-1.6-4.51-4.27-5.624l-4.628-1.995c-1.358-.6-1.876-1.077-1.876-2.036,0-1.156.837-1.634,3.512-1.634a15.9,15.9,0,0,1,4.158.5c.293.085,1.416.56,1.8.3.706-.6-.184-3.776-1.738-4.167a21.355,21.355,0,0,0-4.136-.426c-5.347,0-7.622,1.757-7.622,5.424" transform="translate(-129.629 -388.27)" fill="white"/>
      <path id="Caminho_3275" data-name="Caminho 3275" d="M211.721,403.915c0,3.113,1.517,4.35,3.95,5.427l4.311,1.916c1.954.878,2.554,1.356,2.554,2.394,0,1.318-1.079,1.716-3.712,1.716-.154,0-1.172-.027-1.172-.027a18.578,18.578,0,0,1-5.429-1.075.6.6,0,0,0-.525.058c-.687.676.3,4.04,1.868,4.39,0,0,1.008.184,1.742.257.019,0,2.852.18,3.158.18,5.669,0,8.057-1.746,8.057-5.577,0-3.193-1.6-4.51-4.27-5.628l-4.628-1.995c-1.358-.6-1.876-1.078-1.876-2.036,0-1.157.837-1.635,3.512-1.635a15.9,15.9,0,0,1,4.158.5c.293.085,1.416.56,1.8.3.706-.6-.184-3.778-1.738-4.169a21.407,21.407,0,0,0-4.136-.424c-5.347,0-7.622,1.757-7.622,5.427" transform="translate(-82.419 -388.27)" fill="white"/>
    </g>
  </g>
</svg>
